<mxfile host="app.diagrams.net" agent="Mozilla/5.0 (Macintosh; Intel Mac OS X 10_15_7) AppleWebKit/537.36 (KHTML, like Gecko) Chrome/131.0.0.0 Safari/537.36" version="24.8.6">
  <diagram id="prtHgNgQTEPvFCAcTncT" name="Page-1">
    <mxGraphModel dx="954" dy="689" grid="1" gridSize="10" guides="1" tooltips="1" connect="1" arrows="1" fold="1" page="1" pageScale="1" pageWidth="827" pageHeight="1169" math="0" shadow="0">
      <root>
        <mxCell id="0" />
        <mxCell id="1" parent="0" />
        <mxCell id="7gDx4lzfEvq_S8Atnr9T-95" value="Orgchart" style="swimlane;startSize=20;horizontal=1;containerType=tree;newEdgeStyle={&quot;edgeStyle&quot;:&quot;elbowEdgeStyle&quot;,&quot;startArrow&quot;:&quot;none&quot;,&quot;endArrow&quot;:&quot;none&quot;};" vertex="1" parent="1">
          <mxGeometry x="20" y="170" width="640" height="620" as="geometry" />
        </mxCell>
        <mxCell id="7gDx4lzfEvq_S8Atnr9T-96" value="" style="edgeStyle=elbowEdgeStyle;elbow=vertical;sourcePerimeterSpacing=0;targetPerimeterSpacing=0;startArrow=none;endArrow=none;rounded=0;curved=0;" edge="1" parent="7gDx4lzfEvq_S8Atnr9T-95" source="7gDx4lzfEvq_S8Atnr9T-98" target="7gDx4lzfEvq_S8Atnr9T-99">
          <mxGeometry relative="1" as="geometry" />
        </mxCell>
        <mxCell id="7gDx4lzfEvq_S8Atnr9T-97" value="" style="edgeStyle=elbowEdgeStyle;elbow=vertical;sourcePerimeterSpacing=0;targetPerimeterSpacing=0;startArrow=none;endArrow=none;rounded=0;curved=0;" edge="1" parent="7gDx4lzfEvq_S8Atnr9T-95" source="7gDx4lzfEvq_S8Atnr9T-98" target="7gDx4lzfEvq_S8Atnr9T-100">
          <mxGeometry relative="1" as="geometry" />
        </mxCell>
        <UserObject label="yahel berenstin" treeRoot="1" id="7gDx4lzfEvq_S8Atnr9T-98">
          <mxCell style="whiteSpace=wrap;html=1;align=center;treeFolding=1;treeMoving=1;newEdgeStyle={&quot;edgeStyle&quot;:&quot;elbowEdgeStyle&quot;,&quot;startArrow&quot;:&quot;none&quot;,&quot;endArrow&quot;:&quot;none&quot;};" vertex="1" parent="7gDx4lzfEvq_S8Atnr9T-95">
            <mxGeometry x="80" y="40" width="120" height="60" as="geometry" />
          </mxCell>
        </UserObject>
        <mxCell id="7gDx4lzfEvq_S8Atnr9T-99" value="keshet ben zeev" style="whiteSpace=wrap;html=1;align=center;verticalAlign=middle;treeFolding=1;treeMoving=1;newEdgeStyle={&quot;edgeStyle&quot;:&quot;elbowEdgeStyle&quot;,&quot;startArrow&quot;:&quot;none&quot;,&quot;endArrow&quot;:&quot;none&quot;};" vertex="1" parent="7gDx4lzfEvq_S8Atnr9T-95">
          <mxGeometry x="20" y="140" width="100" height="60" as="geometry" />
        </mxCell>
        <mxCell id="7gDx4lzfEvq_S8Atnr9T-100" value="shay dushi" style="whiteSpace=wrap;html=1;align=center;verticalAlign=middle;treeFolding=1;treeMoving=1;newEdgeStyle={&quot;edgeStyle&quot;:&quot;elbowEdgeStyle&quot;,&quot;startArrow&quot;:&quot;none&quot;,&quot;endArrow&quot;:&quot;none&quot;};" vertex="1" parent="7gDx4lzfEvq_S8Atnr9T-95">
          <mxGeometry x="160" y="140" width="100" height="60" as="geometry" />
        </mxCell>
        <mxCell id="7gDx4lzfEvq_S8Atnr9T-101" value="" style="edgeStyle=elbowEdgeStyle;rounded=0;orthogonalLoop=1;jettySize=auto;html=1;elbow=horizontal;startArrow=none;endArrow=none;" edge="1" source="7gDx4lzfEvq_S8Atnr9T-98" target="7gDx4lzfEvq_S8Atnr9T-102" parent="7gDx4lzfEvq_S8Atnr9T-95">
          <mxGeometry relative="1" as="geometry" />
        </mxCell>
        <UserObject label="liam kayner" treeRoot="1" id="7gDx4lzfEvq_S8Atnr9T-102">
          <mxCell style="whiteSpace=wrap;html=1;align=center;treeFolding=1;treeMoving=1;newEdgeStyle={&quot;edgeStyle&quot;:&quot;elbowEdgeStyle&quot;,&quot;startArrow&quot;:&quot;none&quot;,&quot;endArrow&quot;:&quot;none&quot;};" vertex="1" parent="7gDx4lzfEvq_S8Atnr9T-95">
            <mxGeometry x="240" y="40" width="120" height="60" as="geometry" />
          </mxCell>
        </UserObject>
        <mxCell id="7gDx4lzfEvq_S8Atnr9T-103" value="" style="edgeStyle=elbowEdgeStyle;elbow=vertical;sourcePerimeterSpacing=0;targetPerimeterSpacing=0;startArrow=none;endArrow=none;rounded=0;curved=0;" edge="1" target="7gDx4lzfEvq_S8Atnr9T-104" source="7gDx4lzfEvq_S8Atnr9T-100" parent="7gDx4lzfEvq_S8Atnr9T-95">
          <mxGeometry relative="1" as="geometry">
            <mxPoint x="130" y="280" as="sourcePoint" />
          </mxGeometry>
        </mxCell>
        <mxCell id="7gDx4lzfEvq_S8Atnr9T-104" value="natanel" style="whiteSpace=wrap;html=1;align=center;verticalAlign=middle;treeFolding=1;treeMoving=1;newEdgeStyle={&quot;edgeStyle&quot;:&quot;elbowEdgeStyle&quot;,&quot;startArrow&quot;:&quot;none&quot;,&quot;endArrow&quot;:&quot;none&quot;};" vertex="1" parent="7gDx4lzfEvq_S8Atnr9T-95">
          <mxGeometry x="300" y="140" width="100" height="60" as="geometry" />
        </mxCell>
        <mxCell id="7gDx4lzfEvq_S8Atnr9T-106" style="edgeStyle=elbowEdgeStyle;rounded=0;orthogonalLoop=1;jettySize=auto;html=1;startArrow=none;endArrow=none;entryX=0.892;entryY=0.967;entryDx=0;entryDy=0;entryPerimeter=0;" edge="1" parent="7gDx4lzfEvq_S8Atnr9T-95" source="7gDx4lzfEvq_S8Atnr9T-104" target="7gDx4lzfEvq_S8Atnr9T-102">
          <mxGeometry relative="1" as="geometry" />
        </mxCell>
        <mxCell id="7gDx4lzfEvq_S8Atnr9T-107" value="" style="edgeStyle=elbowEdgeStyle;elbow=vertical;sourcePerimeterSpacing=0;targetPerimeterSpacing=0;startArrow=none;endArrow=none;rounded=0;curved=0;" edge="1" target="7gDx4lzfEvq_S8Atnr9T-108" source="7gDx4lzfEvq_S8Atnr9T-99" parent="7gDx4lzfEvq_S8Atnr9T-95">
          <mxGeometry relative="1" as="geometry">
            <mxPoint x="140" y="270" as="sourcePoint" />
          </mxGeometry>
        </mxCell>
        <mxCell id="7gDx4lzfEvq_S8Atnr9T-109" style="edgeStyle=elbowEdgeStyle;rounded=0;orthogonalLoop=1;jettySize=auto;html=1;startArrow=none;endArrow=none;entryX=0.5;entryY=1;entryDx=0;entryDy=0;exitX=0.75;exitY=0;exitDx=0;exitDy=0;" edge="1" parent="7gDx4lzfEvq_S8Atnr9T-95" source="7gDx4lzfEvq_S8Atnr9T-108" target="7gDx4lzfEvq_S8Atnr9T-100">
          <mxGeometry relative="1" as="geometry" />
        </mxCell>
        <mxCell id="7gDx4lzfEvq_S8Atnr9T-108" value="idan" style="whiteSpace=wrap;html=1;align=center;verticalAlign=middle;treeFolding=1;treeMoving=1;newEdgeStyle={&quot;edgeStyle&quot;:&quot;elbowEdgeStyle&quot;,&quot;startArrow&quot;:&quot;none&quot;,&quot;endArrow&quot;:&quot;none&quot;};" vertex="1" parent="7gDx4lzfEvq_S8Atnr9T-95">
          <mxGeometry x="90" y="230" width="100" height="60" as="geometry" />
        </mxCell>
      </root>
    </mxGraphModel>
  </diagram>
</mxfile>
